<?xml version="1.0" encoding="UTF-8"?><svg id="Layer_1" xmlns="http://www.w3.org/2000/svg" viewBox="0 0 1200 256.79"><defs><style>.cls-1{fill:#fff;stroke-width:0px;}</style></defs><path class="cls-1" d="M408.72,165h-54.21v91.79h-52.99V1.52h111.18c25.63,0,46.07,6.58,61.31,19.74s22.86,33.54,22.86,61.13c0,30.13-7.62,51.44-22.86,63.9-15.24,12.47-37,18.7-65.29,18.7ZM433.66,111.83c6.93-6.12,10.39-15.82,10.39-29.1s-3.49-22.74-10.48-28.4c-6.99-5.66-16.77-8.49-29.35-8.49h-49.7v75.16h49.7c12.58,0,22.4-3.06,29.44-9.18Z"/><path class="cls-1" d="M583.64-.04v45.55h-50.05V-.04h50.05ZM583.64,68.02v188.77h-50.05V68.02h50.05Z"/><path class="cls-1" d="M794.75,135.73h-50.57c-.93-7.04-3.29-13.39-7.1-19.05-5.54-7.62-14.14-11.43-25.8-11.43-16.63,0-28,8.26-34.12,24.77-3.23,8.78-4.85,20.44-4.85,34.98s1.62,25,4.85,33.42c5.89,15.7,16.97,23.55,33.25,23.55,11.54,0,19.74-3.12,24.59-9.35,4.85-6.23,7.79-14.31,8.83-24.25h50.4c-1.16,15.01-6.58,29.21-16.28,42.6-15.47,21.59-38.39,32.39-68.75,32.39s-52.71-9.01-67.02-27.02c-14.32-18.01-21.48-41.39-21.48-70.14,0-32.44,7.91-57.67,23.73-75.68,15.82-18.01,37.64-27.02,65.46-27.02,23.67,0,43.04,5.31,58.1,15.93,15.07,10.62,23.99,29.38,26.76,56.29Z"/><path class="cls-1" d="M829.73,1.52h49.36v255.27h-49.36V1.52Z"/><path class="cls-1" d="M977.98-.04v45.55h-50.05V-.04h50.05ZM977.98,68.02v188.77h-50.05V68.02h50.05Z"/><path class="cls-1" d="M1032.88,88.45c13.05-16.63,35.44-24.94,67.2-24.94,20.67,0,39.02,4.1,55.07,12.3,16.05,8.2,24.07,23.67,24.07,46.41v86.59c0,6,.11,13.28.35,21.82.35,6.47,1.33,10.85,2.94,13.16,1.62,2.31,4.04,4.22,7.27,5.72v7.27h-53.69c-1.5-3.81-2.54-7.39-3.12-10.74-.58-3.35-1.04-7.16-1.39-11.43-6.81,7.39-14.66,13.68-23.55,18.88-10.62,6.12-22.63,9.18-36.02,9.18-17.09,0-31.2-4.88-42.34-14.63-11.14-9.75-16.71-23.58-16.71-41.48,0-23.21,8.95-40.01,26.84-50.4,9.81-5.66,24.25-9.7,43.3-12.12l16.8-2.08c9.12-1.15,15.64-2.6,19.57-4.33,7.04-3,10.56-7.68,10.56-14.03,0-7.73-2.68-13.08-8.05-16.02-5.37-2.94-13.25-4.42-23.64-4.42-11.66,0-19.92,2.89-24.76,8.66-3.46,4.27-5.78,10.04-6.93,17.32h-47.63c1.04-16.51,5.66-30.07,13.85-40.7ZM1069.59,221.11c4.62,3.81,10.27,5.71,16.97,5.71,10.62,0,20.41-3.12,29.36-9.35,8.95-6.24,13.59-17.61,13.94-34.12v-18.36c-3.12,1.96-6.26,3.55-9.44,4.76-3.18,1.21-7.53,2.34-13.08,3.38l-11.08,2.08c-10.39,1.85-17.84,4.1-22.34,6.75-7.62,4.5-11.43,11.49-11.43,20.96,0,8.43,2.37,14.49,7.1,18.18Z"/><path class="cls-1" d="M251.08,0C165.52,87.5,82.39,172.53,0,256.79c80.21,0,164.52,0,251.08,0,0-83.36,0-167.94,0-256.79Z"/></svg>